<?xml version="1.0" standalone="no"?><!DOCTYPE svg PUBLIC "-//W3C//DTD SVG 1.1//EN" "http://www.w3.org/Graphics/SVG/1.1/DTD/svg11.dtd"><svg t="1715498941513" class="icon" viewBox="0 0 1024 1024" version="1.1" xmlns="http://www.w3.org/2000/svg" p-id="11064" xmlns:xlink="http://www.w3.org/1999/xlink" width="128" height="128"><path d="M263.959212 878.072578H128.16635c-10.236929 0-19.962011-4.043587-27.230231-11.158252a37.569529 37.569529 0 0 1-11.209437-26.820754V183.548136c0-20.985704 17.249225-37.927822 38.439668-37.927822h135.844047c28.86814 0 52.259522-19.859642 52.259522-44.377087s-23.391383-44.377087-52.259522-44.377087H81.997801C36.69939 56.86614 0 93.207238 0 137.942617v747.807658c0 44.786564 36.69939 81.076477 81.997801 81.076477h182.012596c28.86814 0 52.259522-19.859642 52.259522-44.377087 0-24.46626-23.391383-44.377087-52.310707-44.377087zM330.448066 468.851345a9.110867 9.110867 0 0 1-9.162052-9.059682V347.03189c0-13.052084-7.626512-16.174348-16.942117-6.961111l-162.76717 160.873338a17.249225 17.249225 0 0 0 0 24.46626l162.76717 160.873338c9.315605 9.213236 16.942117 6.142157 16.942117-6.961112V566.614016c0-4.964911 4.094772-9.059682 9.162052-9.059682h66.335299c6.50045 0 11.772468-5.220834 11.772468-11.618915V480.470259a11.516545 11.516545 0 0 0-3.429371-8.240728 11.926022 11.926022 0 0 0-8.343097-3.429371H330.448066zM941.695091 56.814956h-182.012596c-28.86814 0-52.259522 19.859642-52.259522 44.377086s23.391383 44.377087 52.259522 44.377087h135.895232c21.190443 0 38.388483 16.993302 38.388483 37.927822v656.545436a37.518344 37.518344 0 0 1-11.260622 26.820754 38.797961 38.797961 0 0 1-27.127861 11.158253h-135.844047c-28.919324 0-52.310707 19.859642-52.310707 44.377086s23.391383 44.377087 52.310707 44.377087h181.961411c45.29841 0 81.997801-36.341098 81.997801-81.076477V137.942617c0-44.786564-36.69939-81.076477-81.997801-81.076477zM719.40018 686.386084l162.76717-160.873338a17.198041 17.198041 0 0 0 0-24.568629l-162.76717-160.822154c-9.36679-9.213236-16.993302-6.090973-16.993302 6.961112v112.759772c0 4.964911-4.094772 9.008497-9.162051 9.059682H627.011896a11.772468 11.772468 0 0 0-11.772468 11.618915v65.46516a11.772468 11.772468 0 0 0 11.772468 11.618914h66.284115c5.06728 0 9.162051 4.094772 9.162052 9.059682v112.759773c0 13.052084 7.677697 16.174348 16.993302 6.961111z" fill="#1890ff" p-id="11065"></path><path d="M544.143957 991.651305V31.939218a32.246326 32.246326 0 0 0-32.246326-31.939218 32.246326 32.246326 0 0 0-32.246326 31.888034v959.916825a32.246326 32.246326 0 1 0 64.492652-0.10237z" fill="#1890ff" fill-opacity=".5" p-id="11066"></path></svg>