<?xml version="1.0" standalone="no"?><!DOCTYPE svg PUBLIC "-//W3C//DTD SVG 1.1//EN" "http://www.w3.org/Graphics/SVG/1.1/DTD/svg11.dtd"><svg t="1711884846745" class="icon" viewBox="0 0 1024 1024" version="1.1" xmlns="http://www.w3.org/2000/svg" p-id="6294" width="32" height="32" xmlns:xlink="http://www.w3.org/1999/xlink"><path d="M889 845H135C60.6 845 0 784.4 0 710V135C0 60.6 60.6 0 135 0h754c74.4 0 135 60.6 135 135v575c0 74.4-60.6 135-135 135zM135 90c-24.8 0-45 20.2-45 45v575c0 24.8 20.2 45 45 45h754c24.8 0 45-20.2 45-45V135c0-24.8-20.2-45-45-45H135zM852 1024H172c-24.9 0-45-20.1-45-45s20.1-45 45-45h680c24.9 0 45 20.1 45 45s-20.1 45-45 45z" p-id="6295" fill="#333639"></path><path d="M214 612.2c-9 0-18.2-2.7-26.1-8.4-20.2-14.4-24.9-42.5-10.5-62.8l129.3-181.3c16.1-22.7 40.2-37.7 67.6-42.3 27.4-4.6 55 1.8 77.7 17.9l161.9 115.4c6.4 4.5 15.2 3.1 19.8-3.3l139.8-195.7c14.4-20.2 42.5-24.9 62.8-10.5 20.2 14.4 24.9 42.5 10.5 62.8L706.9 499.7c-33.3 46.7-98.5 57.7-145.3 24.3L399.7 408.6c-4.2-3-8.4-2.8-10.6-2.4-2.2 0.4-6.2 1.6-9.2 5.8L250.6 593.3c-8.7 12.3-22.6 18.9-36.6 18.9z" p-id="6296" fill="#333639"></path></svg>