<?xml version="1.0" standalone="no"?><!DOCTYPE svg PUBLIC "-//W3C//DTD SVG 1.1//EN" "http://www.w3.org/Graphics/SVG/1.1/DTD/svg11.dtd"><svg t="1707794031041" class="icon" viewBox="0 0 1024 1024" version="1.1" xmlns="http://www.w3.org/2000/svg" p-id="5164" width="64" height="64" xmlns:xlink="http://www.w3.org/1999/xlink"><path d="M1006.590901 657.408815c-11.662196-11.548419-23.324393-17.407961-34.986589-17.407962h-46.535008c-5.745765-133.859258-52.337661-238.59147-151.21033-302.591327l98.872669-226.815496c23.267504 0 34.872811-17.521739 34.872811-34.986589 11.719085-23.210615 5.859543-46.535008-11.605307-58.140315-17.407961-11.605308-34.9297-5.859543-52.337662 11.605307-11.662196 17.46485-17.46485 34.9297-5.802654 52.337662l-98.986446 221.126619c-75.605165-34.9297-157.012984-52.337661-232.675039-46.535007-75.662054 0-157.126762 17.407961-226.872384 52.337661L174.535861 93.12918c11.605308-17.407961 11.605308-40.675465 0-52.337662C162.930553 23.326668 139.606161 17.410237 116.395546 29.015544c-11.662196 5.859543-23.324393 29.070158-17.46485 46.648786 5.745765 23.210615 17.407961 40.675465 34.9297 40.675465L232.676176 343.325957C133.860396 407.325815 87.325388 512.001138 81.465846 645.803507H40.733492c-11.662196 0-23.324393 0-29.127047 11.605308C0.001138 669.014122 0.001138 680.733207 0.001138 692.338515v133.74548c0 11.719085 5.859543 29.127046 11.605307 34.929701 11.662196 11.662196 23.324393 17.46485 34.9297 17.46485h46.648786v29.070157c0 34.9297 29.013269 69.8594 63.942969 69.859401H866.985878c34.9297 0 63.999858-34.9297 63.999858-69.859401v-29.013269h46.535007c23.267504 0 40.675465-23.324393 40.675465-46.591896v-133.859258c5.859543-23.210615 0-34.872811-11.605307-40.675465l0.056889-0.056889z m-250.196777-46.478119a116.735741 116.735741 0 0 1-116.394408 116.337519H378.140742a116.735741 116.735741 0 0 1-116.280631-116.337519 116.735741 116.735741 0 0 1 116.280631-116.394408h255.999431c69.8594-5.802654 122.253951 46.648785 122.253951 116.394408z" fill="#ffffff" p-id="5165"></path><path d="M325.859969 133.861534H384.000284c5.859543 0 11.605308 0 17.407962-5.859543l17.521739-17.407961 34.9297 58.140315c5.745765 11.662196 11.605308 11.662196 23.210615 11.662196 11.662196 0 17.46485-5.859543 23.324392-17.46485L512 87.269637l17.407961 69.802512c5.916431 11.605308 11.662196 17.46485 23.324393 17.46485a44.430123 44.430123 0 0 0 29.127046-11.605308l29.013269-52.337661 11.662196 11.548419c0 5.859543 5.859543 11.719085 11.605308 11.719085h46.648785a25.031055 25.031055 0 0 0 23.210615-23.324393 25.031055 25.031055 0 0 0-23.324392-23.267504h-40.675465l-23.324393-23.267504c5.859543-5.859543-5.745765-11.605308-11.605308-11.605307-5.745765 0-17.407961 5.745765-23.210615 11.605307l-11.719085 46.591897L546.9297 17.410237A32.028373 32.028373 0 0 0 517.859543 0.002276C512 0.002276 500.394692 5.861818 494.53515 17.410237l-23.267504 98.986447-29.127046-46.648786c0-5.745765-11.605308-11.605308-17.407962-11.605307-5.802654 0-17.407961 0-23.324392 5.859542l-23.267504 23.324393h-52.337662c-5.802654 0-11.662196 0-17.407961 5.745765 0 5.859543-5.859543 11.662196-5.859542 17.46485 0 5.859543 0 11.605308 5.859542 17.46485 5.745765 5.859543 11.605308 5.859543 17.407961 5.859543z m81.350931 541.012131c-17.351073 0-34.815923-17.407961-34.815923-34.872812v-63.999857c0-17.407961 17.407961-34.9297 34.9297-34.929701 17.351073 0 34.815923 17.46485 34.815923 34.929701v63.999857c0 23.324393-17.407961 34.9297-34.815923 34.9297h-0.056889z m244.394123-5.802654c-5.745765 5.859543-23.210615 5.859543-29.013269 0l-52.451439-46.535008c-5.745765-5.802654-5.745765-23.267504 0-29.070157 5.859543-5.859543 23.324393-5.859543 29.127047 0l46.591896 46.535007c11.605308 11.605308 11.605308 23.324393 5.745765 29.070158z" fill="#ffffff" p-id="5166"></path><path d="M570.140315 622.592892c5.859543 5.802654 23.324393 5.802654 29.127047 0l46.591896-46.591896c5.745765-5.859543 5.745765-23.324393 0-29.070158-5.859543-5.859543-23.324393-5.859543-29.127046 0l-46.591897 46.535008c-5.745765 11.605308-5.745765 23.267504 0 29.070157v0.056889z" fill="#ffffff" p-id="5167"></path></svg>