<?xml version="1.0" standalone="no"?><!DOCTYPE svg PUBLIC "-//W3C//DTD SVG 1.1//EN" "http://www.w3.org/Graphics/SVG/1.1/DTD/svg11.dtd"><svg t="1711885013796" class="icon" viewBox="0 0 1024 1024" version="1.1" xmlns="http://www.w3.org/2000/svg" p-id="9206" width="32" height="32" xmlns:xlink="http://www.w3.org/1999/xlink"><path d="M477.12 858.56l14.72-16.64a77.44 77.44 0 0 0 54.08 24c25.6 0 40.96-12.8 40.96-32s-14.08-26.56-32-34.88l-28.48-12.16a52.16 52.16 0 0 1 22.08-101.76 79.36 79.36 0 0 1 57.28 24l-12.8 15.68a64 64 0 0 0-44.48-18.24c-22.08 0-36.48 11.2-36.48 28.8s16.96 25.92 32 32l28.16 12.16A54.08 54.08 0 0 1 611.84 832a58.88 58.88 0 0 1-66.24 55.36 93.76 93.76 0 0 1-68.48-28.8zM810.24 928a96 96 0 0 1-28.16 4.16 74.24 74.24 0 0 1-71.68-46.4c-42.56-4.8-70.4-42.56-70.4-99.84 0-62.4 34.56-100.48 83.52-100.48s83.2 38.08 83.2 100.48c0 56.32-27.52 93.44-68.8 100.8a50.24 50.24 0 0 0 47.68 25.92 68.8 68.8 0 0 0 20.8-2.88z m-87.68-61.44c34.88 0 57.92-32 57.92-81.6s-23.04-79.04-57.92-79.04-58.24 30.08-58.24 79.04 23.04 82.56 58.24 82.56zM848 688.96h24.64V864h85.44v21.12H848zM444.16 377.28c-192 0-387.2-52.8-387.2-153.92s194.56-154.24 387.2-154.24S832 121.92 832 224s-195.52 153.28-387.84 153.28z m0-244.16C234.88 133.12 120.96 192 120.96 224s113.92 89.92 323.2 89.92S768 253.76 768 224s-114.88-90.88-323.84-90.88z" p-id="9207"></path><path d="M444.16 554.88c-192 0-387.2-52.8-387.2-154.24a32 32 0 0 1 64 0c0 32 113.92 90.24 323.2 90.24S768 431.36 768 400.64a32 32 0 1 1 64 0c0 101.44-195.52 154.24-387.84 154.24zM444.16 732.48c-192 0-387.2-53.12-387.2-154.24a32 32 0 0 1 64 0c0 32 113.92 90.24 323.2 90.24a32 32 0 1 1 0 64zM444.16 932.16c-192 0-387.2-52.8-387.2-153.92a32 32 0 0 1 64 0c0 30.4 113.92 89.92 323.2 89.92a32 32 0 0 1 0 64z" p-id="9208"></path><path d="M800 699.2a32 32 0 0 1-32-32V234.24a32 32 0 0 1 64 0v432.96a32 32 0 0 1-32 32zM88.96 821.12a32 32 0 0 1-32-32V234.24a32 32 0 0 1 64 0v554.88a32 32 0 0 1-32 32z" p-id="9209"></path></svg>